<?xml version="1.0" encoding="utf-8"?>
<!-- Generator: Adobe Illustrator 16.0.0, SVG Export Plug-In . SVG Version: 6.00 Build 0)  -->
<!DOCTYPE svg PUBLIC "-//W3C//DTD SVG 1.1//EN" "http://www.w3.org/Graphics/SVG/1.1/DTD/svg11.dtd">
<svg version="1.1" id="Layer_1" xmlns="http://www.w3.org/2000/svg" xmlns:xlink="http://www.w3.org/1999/xlink" x="0px" y="0px"
	 width="1031.811px" height="728.5px" viewBox="0 0 1031.811 728.5" enable-background="new 0 0 1031.811 728.5"
	 xml:space="preserve">
<path fill="#FFFAC0" stroke="#000000" stroke-miterlimit="10" d="M1031.811,350.317c0,0,0,0-46.947,51.853
	c-16.619,18.357-39.885,46.771-75.607,67.379c-63.838,36.824-167.457,48.713-344.023-66.299c-3.711-2.418-7.455-4.893-11.232-7.424
	c-89.205-59.781-177.037-82.001-255.556-84.36c-110.645-3.324-202.795,32.791-254.229,58.815C15.965,384.576,0,395.826,0,395.826
	s6.994-6.658,19.629-16.871c23.112-18.68,65.099-49.251,117.679-72.714c74.208-33.113,169.516-52.066,262.651-3.45
	c33.037,17.246,65.8,42.993,97.25,79.625c36.753,42.809,74.105,75.049,110.994,98.955c78.359,50.779,154.627,63.955,218.613,60.945
	c56.662-2.664,103.695-18.021,134.025-31.199c14.623-6.352,25.363-12.199,31.43-15.871c39.539-23.941,39.539-28.879,39.539-28.879"
	/>
</svg>
